<svg width="960" height="620" viewBox="0 0 960 620" xmlns="http://www.w3.org/2000/svg" font-family="'Apple SD Gothic Neo','Malgun Gothic',sans-serif">
  <defs>
    <pattern id="hatch" width="14" height="14" patternTransform="rotate(135)" patternUnits="userSpaceOnUse">
      <rect width="14" height="14" fill="#ded1ae"/>
      <line x1="0" y1="0" x2="0" y2="14" stroke="#c9b98f" stroke-width="2"/>
    </pattern>
  </defs>

  <rect width="960" height="620" fill="#f8f1df"/>
  <rect x="10" y="10" width="940" height="600" fill="none" stroke="#c9b98f" stroke-width="1"/>

  <text x="30" y="42" font-size="24" font-weight="700" fill="#2a2118">메인 화면 레이아웃</text>
  <text x="30" y="62" font-size="13" fill="#6b5f4c">1920×1080 기준 · 상단 네비 / 좌측 캐릭터 / 중앙 대련 캔버스 / 우측 성장 패널 / 하단 액션바</text>
  <g transform="translate(886,26) rotate(-4)">
    <rect x="-22" y="-22" width="44" height="44" rx="4" fill="none" stroke="#8c2f2f" stroke-width="2"/>
    <text x="0" y="8" font-size="20" font-weight="700" fill="#8c2f2f" text-anchor="middle">壹</text>
  </g>

  <!-- screen frame -->
  <g transform="translate(20,80)">
    <rect x="0" y="0" width="920" height="520" rx="6" fill="#eae0c7" stroke="#c9b98f"/>

    <!-- top bar -->
    <rect x="0" y="0" width="920" height="34" fill="#ded1ae"/>
    <text x="14" y="22" font-size="14" font-weight="700" fill="#93691a">무림인 키우기</text>
    <text x="130" y="22" font-size="11" fill="#6b5f4c">스테이지</text>
    <rect x="182" y="7" width="34" height="20" rx="3" fill="#93691a" fill-opacity="0.18"/>
    <text x="188" y="22" font-size="11" fill="#2a2118">무공</text>
    <text x="230" y="22" font-size="11" fill="#6b5f4c">장구</text>
    <text x="270" y="22" font-size="11" fill="#6b5f4c">문파</text>
    <text x="310" y="22" font-size="11" fill="#6b5f4c">환골탈태</text>
    <text x="368" y="22" font-size="11" fill="#6b5f4c">상점</text>
    <circle cx="742" cy="17" r="4" fill="#93691a"/>
    <text x="752" y="22" font-size="11" fill="#2a2118">내공 1.2만</text>
    <circle cx="830" cy="17" r="4" fill="#a85a4a"/>
    <text x="840" y="22" font-size="11" fill="#2a2118">영약 320</text>

    <!-- left panel -->
    <g transform="translate(0,34)">
      <rect x="0" y="0" width="182" height="414" fill="#eae0c7"/>
      <text x="12" y="16" font-size="9" letter-spacing="1" fill="#6b5f4c">캐릭터 패널</text>
      <rect x="63" y="26" width="56" height="56" rx="6" fill="#a85a4a" fill-opacity="0.55" stroke="#c9b98f"/>
      <text x="91" y="98" font-size="12" font-weight="700" fill="#2a2118" text-anchor="middle">목현</text>
      <text x="91" y="112" font-size="10" fill="#b98f2e" text-anchor="middle">경지 · 3성 후기지수</text>

      <text x="14" y="136" font-size="9" fill="#6b5f4c">근골</text>
      <rect x="40" y="130" width="128" height="5" rx="2" fill="#ded1ae"/>
      <rect x="40" y="130" width="82" height="5" rx="2" fill="#b98f2e"/>

      <text x="14" y="152" font-size="9" fill="#6b5f4c">오성</text>
      <rect x="40" y="146" width="128" height="5" rx="2" fill="#ded1ae"/>
      <rect x="40" y="146" width="62" height="5" rx="2" fill="#b98f2e"/>

      <text x="14" y="168" font-size="9" fill="#6b5f4c">심법</text>
      <rect x="40" y="162" width="128" height="5" rx="2" fill="#ded1ae"/>
      <rect x="40" y="162" width="91" height="5" rx="2" fill="#b98f2e"/>

      <text x="91" y="196" font-size="8" letter-spacing="1" fill="#6b5f4c" text-anchor="middle">전투력</text>
      <text x="91" y="216" font-size="19" font-weight="700" fill="#2a2118" text-anchor="middle">2,614</text>

      <line x1="14" y1="234" x2="168" y2="234" stroke="#c9b98f" stroke-dasharray="2,2"/>
      <text x="14" y="250" font-size="9" fill="#6b5f4c">삼재검법 1보 · 무명검</text>
    </g>

    <!-- center canvas -->
    <g transform="translate(182,34)">
      <rect x="0" y="0" width="556" height="414" fill="url(#hatch)"/>
      <text x="12" y="16" font-size="9" letter-spacing="1" fill="#6b5f4c">대련뷰 (canvas)</text>

      <g transform="translate(278,34)">
        <rect x="-118" y="-11" width="236" height="22" rx="11" fill="#f8f1df" fill-opacity="0.9" stroke="#c9b98f"/>
        <text x="-104" y="4" font-size="9" fill="#2a2118">3-1</text>
        <circle cx="-70" cy="0" r="4" fill="#b98f2e"/>
        <circle cx="-56" cy="0" r="4" fill="#b98f2e"/>
        <circle cx="-42" cy="0" r="4" fill="#b98f2e"/>
        <circle cx="-28" cy="0" r="4.5" fill="#93691a" stroke="#93691a" stroke-width="2" stroke-opacity="0.3"/>
        <circle cx="-14" cy="0" r="4" fill="#ded1ae" stroke="#c9b98f"/>
        <circle cx="0" cy="0" r="4" fill="#ded1ae" stroke="#c9b98f"/>
        <circle cx="14" cy="0" r="4" fill="#ded1ae" stroke="#c9b98f"/>
        <circle cx="28" cy="0" r="4" fill="#ded1ae" stroke="#c9b98f"/>
        <circle cx="42" cy="0" r="4" fill="#ded1ae" stroke="#c9b98f"/>
        <circle cx="60" cy="0" r="6" fill="#8c2f2f"/>
        <text x="104" y="4" font-size="9" fill="#2a2118">3-10</text>
      </g>

      <g transform="translate(200,230)">
        <rect x="0" y="0" width="30" height="60" rx="6" fill="#b98f2e"/>
        <text x="55" y="35" font-size="18" fill="#b98f2e" text-anchor="middle">⚔</text>
        <rect x="126" y="0" width="30" height="60" rx="6" fill="#a85a4a"/>
      </g>
    </g>

    <!-- right panel -->
    <g transform="translate(738,34)">
      <rect x="0" y="0" width="182" height="414" fill="#eae0c7"/>
      <text x="12" y="16" font-size="9" letter-spacing="1" fill="#6b5f4c">추천 수련</text>
      <rect x="12" y="24" width="158" height="70" rx="5" fill="#ded1ae" stroke="#93691a" stroke-opacity="0.5"/>
      <text x="20" y="40" font-size="8" letter-spacing="1" fill="#b98f2e">추천 수련</text>
      <text x="20" y="56" font-size="12" font-weight="700" fill="#2a2118">삼재검법 1보 · Lv12</text>
      <text x="20" y="70" font-size="9" fill="#6b5f4c">"휘두르기" 다음 강화 대기중</text>
      <rect x="20" y="76" width="134" height="14" rx="3" fill="#93691a"/>
      <text x="87" y="86" font-size="9" font-weight="700" fill="#f8f1df" text-anchor="middle">연마하기 · 내공 1,200</text>

      <text x="14" y="112" font-size="9.5" fill="#2a2118">▸ 삼재검법 1보</text>
      <text x="168" y="112" font-size="8" fill="#6b5f4c" text-anchor="end">진행중</text>
      <text x="14" y="130" font-size="9.5" fill="#2a2118">▸ 태극권</text>
      <text x="168" y="130" font-size="8" fill="#6b5f4c" text-anchor="end">해금됨</text>
      <text x="14" y="148" font-size="9.5" fill="#9a8f78">▸ 매화검법</text>
      <text x="168" y="148" font-size="8" fill="#9a8f78" text-anchor="end">🔒 6-1</text>
    </g>

    <!-- bottom bar -->
    <g transform="translate(0,448)">
      <rect x="0" y="0" width="920" height="72" fill="#ded1ae"/>
      <rect x="14" y="24" width="150" height="24" rx="4" fill="#93691a" fill-opacity="0.2"/>
      <text x="89" y="40" font-size="10" font-weight="700" fill="#b98f2e" text-anchor="middle">운기조식 자동전투 ON</text>
      <rect x="176" y="24" width="90" height="24" rx="4" fill="none" stroke="#9a8f78"/>
      <text x="221" y="40" font-size="9.5" fill="#9a8f78" text-anchor="middle">일괄 연마</text>
      <rect x="278" y="24" width="140" height="24" rx="4" fill="none" stroke="#9a8f78"/>
      <text x="348" y="40" font-size="9.5" fill="#9a8f78" text-anchor="middle">오프라인 보상 수령</text>
      <text x="820" y="40" font-size="9.5" fill="#6b5f4c" text-anchor="end">퀘스트 ▾</text>
      <text x="890" y="40" font-size="9.5" fill="#6b5f4c" text-anchor="end">문파톡 ▾</text>
    </g>
  </g>
</svg>
